<?xml version="1.0" encoding="UTF-8"?>
<svg id="Camada_1" xmlns="http://www.w3.org/2000/svg" version="1.1" viewBox="0 0 813.93 418.97">
  <!-- Generator: Adobe Illustrator 29.5.1, SVG Export Plug-In . SVG Version: 2.1.0 Build 141)  -->
  <defs>
    <style>
      .st0 {
        fill: #a97d50;
      }

      .st1 {
        fill: #fff;
      }
    </style>
  </defs>
  <g>
    <g>
      <polygon class="st0" points="209.96 200.86 253 205.85 236.31 242.63 240.37 244.24 259.45 202.2 210 196.47 209.96 200.86"/>
      <polygon class="st0" points="191.89 310.55 166.7 338.49 141.51 310.55 135.64 310.55 166.7 345.01 197.77 310.55 191.89 310.55"/>
      <polygon class="st0" points="97.1 242.63 80.4 205.85 123.45 200.86 123.4 196.47 73.95 202.2 93.03 244.24 97.1 242.63"/>
    </g>
    <polygon class="st0" points="171.77 73.95 167.37 96.45 137.2 104.2 160.77 105.11 166.74 154.87 174.92 109.43 201.35 100.48 171.77 107.27 167.69 133.05 165.49 102.94 155.21 102.35 169.89 99.15 171.77 91.75 175.3 100.43 171.77 73.95"/>
    <polygon class="st1" points="256.3 263.59 199.15 239.09 199.8 180.08 166.7 162.61 133.6 180.08 134.25 239.09 77.1 263.59 138.04 242.16 137.09 182.01 166.7 166.36 196.31 182.01 195.37 242.16 256.3 263.59"/>
    <polygon class="st1" points="150.82 191.69 148.74 208.09 148.33 277.64 149.57 306.08 152.07 278.4 152.49 207.33 150.82 191.69"/>
    <polygon class="st1" points="182.58 191.28 184.66 207.76 185.08 277.54 183.83 306.08 181.33 278.3 180.91 207 182.58 191.28"/>
    <polygon class="st1" points="163.7 274.44 163.23 198.08 161.45 179.96 159.67 198.08 159.21 274.44 161.45 306.6 163.7 274.44"/>
    <polygon class="st1" points="174.2 274.44 173.73 198.08 171.95 179.96 170.17 198.08 169.71 274.44 171.95 306.6 174.2 274.44"/>
    <polygon class="st1" points="194.97 250.16 197.07 261.88 197.49 292.63 196.23 307.04 193.71 293.01 193.29 261.5 194.97 250.16"/>
    <polygon class="st1" points="207.37 257.13 208.97 267.41 209.29 294.39 208.33 307.04 206.41 294.73 206.09 267.07 207.37 257.13"/>
    <polygon class="st1" points="218.57 261.84 220.17 271.15 220.49 295.58 219.53 307.04 217.61 295.89 217.29 270.85 218.57 261.84"/>
    <polygon class="st1" points="229.24 265.84 230.84 274.33 231.16 296.6 230.2 307.04 228.28 296.88 227.96 274.05 229.24 265.84"/>
    <polygon class="st1" points="138.43 250.16 136.33 261.88 135.92 292.63 137.17 307.04 139.69 293.01 140.11 261.5 138.43 250.16"/>
    <polygon class="st1" points="126.03 257.13 124.43 267.41 124.11 294.39 125.07 307.04 126.99 294.73 127.31 267.07 126.03 257.13"/>
    <polygon class="st1" points="114.83 261.84 113.23 271.15 112.91 295.58 113.87 307.04 115.79 295.89 116.11 270.85 114.83 261.84"/>
    <polygon class="st1" points="104.16 265.84 102.56 274.33 102.24 296.6 103.2 307.04 105.12 296.88 105.44 274.05 104.16 265.84"/>
  </g>
  <path class="st1" d="M292.2,212c0-3.54,1.03-6.04,3.11-7.5,2.07-1.46,4.87-2.2,8.41-2.2,2.52,0,4.77.3,6.74.91s3.21,1.01,3.71,1.21v101.99h-21.97v-94.41h0Z"/>
  <path class="st1" d="M352.2,263.68v23.49h51.22v19.25h-73.19v-92.29c0-7.88,4.09-11.82,12.27-11.82h51.37c3.84,0,6.52.81,8.03,2.42,1.52,1.62,2.27,3.94,2.27,6.97,0,2.33-.33,4.39-.98,6.21-.66,1.82-1.19,3.03-1.59,3.64h-49.4v22.88h39.55c3.84,0,6.52.81,8.03,2.42,1.52,1.62,2.27,3.94,2.27,6.97,0,2.33-.33,4.39-.99,6.21-.66,1.82-1.19,3.03-1.59,3.64h-47.28.01Z"/>
  <path class="st1" d="M419.61,214.13c0-7.88,4.09-11.82,12.27-11.82h30.01c6.06,0,11.26.73,15.61,2.2,4.34,1.47,7.96,3.44,10.84,5.91,2.88,2.48,5,5.41,6.36,8.79,1.36,3.39,2.05,7,2.05,10.84s-.63,7.15-1.89,9.93-2.73,5.08-4.39,6.89c-1.67,1.82-3.26,3.21-4.77,4.17-1.52.96-2.48,1.54-2.88,1.74,1.72.41,3.69,1.19,5.91,2.35,2.22,1.16,4.29,2.73,6.21,4.7,1.92,1.97,3.54,4.39,4.85,7.27,1.31,2.88,1.97,6.29,1.97,10.23,0,3.13-.56,6.42-1.67,9.85-1.11,3.44-3.03,6.57-5.76,9.4s-6.39,5.18-10.99,7.05c-4.6,1.87-10.38,2.8-17.35,2.8h-46.37v-92.29h0ZM474.92,232.01c0-3.23-1.14-6.06-3.41-8.49-2.27-2.42-5.99-3.64-11.14-3.64h-19.25v24.7h18.94c5.15,0,8.92-1.29,11.29-3.86,2.37-2.58,3.56-5.48,3.56-8.71h.01ZM479.47,275.5c0-1.62-.3-3.23-.91-4.85-.61-1.61-1.52-3.05-2.73-4.32-1.21-1.26-2.75-2.27-4.62-3.03s-4.12-1.14-6.74-1.14h-23.34v26.52h23.34c5.25,0,9.07-1.36,11.44-4.09s3.56-5.76,3.56-9.09h0Z"/>
  <path class="st1" d="M503.51,306.42c2.22-5.96,4.62-12.12,7.2-18.49,2.58-6.36,5.15-12.65,7.73-18.87,2.58-6.21,5.1-12.25,7.58-18.11,2.47-5.86,4.77-11.24,6.89-16.14s4.02-9.22,5.68-12.96c1.67-3.74,3.01-6.62,4.02-8.64,2.22-4.75,4.7-7.98,7.43-9.7s6.01-2.58,9.85-2.58,6.94.56,9.02,1.67c2.07,1.11,3.51,2.07,4.32,2.88,1.82,3.13,3.99,7.35,6.52,12.65,2.52,5.3,5.18,11.16,7.96,17.58s5.58,13.08,8.41,20c2.83,6.92,5.51,13.62,8.03,20.08,2.52,6.47,4.82,12.38,6.9,17.73,2.07,5.36,3.71,9.65,4.93,12.88h-23.34c-.81-2.22-1.95-5.18-3.41-8.87-1.47-3.69-3.21-8.11-5.23-13.26h-49.55c-2.02,5.15-3.74,9.55-5.15,13.18-1.42,3.64-2.58,6.62-3.49,8.94h-22.28l-.02.03ZM559.28,222.61c-.51,1.01-1.34,2.93-2.5,5.76s-2.53,6.21-4.09,10.15c-1.57,3.94-3.31,8.26-5.23,12.96-1.92,4.7-3.79,9.37-5.61,14.02h34.7c-1.82-4.65-3.66-9.32-5.53-14.02-1.87-4.7-3.61-8.99-5.23-12.88s-3.01-7.25-4.17-10.08-1.95-4.8-2.35-5.91h0Z"/>
  <path class="st1" d="M718.16,306.42l-4.09-72.89c-4.34,9.4-8.54,18.39-12.58,26.97-4.04,8.59-8.28,17.43-12.73,26.52h-14.55c-2.22-4.44-4.5-9.07-6.82-13.87-2.33-4.8-4.57-9.55-6.74-14.24-2.17-4.7-4.27-9.22-6.29-13.56-2.02-4.34-3.84-8.28-5.46-11.82l-3.94,72.89h-21.97l4.85-92.14c.2-4.04,1.49-7.05,3.86-9.02s5.53-2.96,9.47-2.96c3.54,0,6.54.43,9.02,1.29,2.47.86,4.22,1.64,5.23,2.35,2.02,4.14,4.12,8.49,6.29,13.03,2.17,4.55,4.37,9.17,6.59,13.87,2.22,4.7,4.47,9.4,6.74,14.09,2.27,4.7,4.57,9.22,6.9,13.56,4.24-8.38,8.36-16.64,12.35-24.78,3.99-8.13,7.7-15.99,11.14-23.56,1.62-3.53,3.49-6.06,5.61-7.58s5.3-2.27,9.55-2.27c3.74,0,6.79.45,9.17,1.36,2.37.91,3.86,1.62,4.47,2.12l5.76,100.62h-21.82v.02Z"/>
  <g>
    <path class="st0" d="M291.68,323.9c0-.41.12-.72.36-.92s.57-.3,1-.3c.27,0,.52.04.75.11s.39.13.47.18v16.12h-2.58v-15.19h0Z"/>
    <path class="st0" d="M308.4,332.56c0,.91-.18,1.71-.53,2.4s-.83,1.29-1.43,1.8c.43.24.78.5,1.04.78s.47.56.61.85c.14.29.24.56.29.82.05.26.07.49.07.68,0,.65-.14,1.24-.42,1.76-.28.52-.67.96-1.18,1.31-.51.36-1.12.64-1.83.84-.71.2-1.48.3-2.33.3-.91,0-1.71-.07-2.4-.2-.69-.14-1.27-.29-1.74-.47s-.84-.34-1.1-.5-.42-.26-.47-.31l1.03-1.84c.08.06.23.17.47.31.23.14.53.29.91.44.37.15.82.28,1.32.39.51.11,1.08.17,1.72.17.48,0,.92-.04,1.34-.13.41-.09.77-.22,1.07-.41.3-.18.54-.42.72-.72.18-.29.26-.65.26-1.06,0-.3-.1-.64-.3-1s-.55-.67-1.06-.91c-.26.1-.57.17-.96.24-.38.06-.72.1-1.03.1-.86,0-1.65-.14-2.38-.43s-1.35-.68-1.87-1.19c-.53-.51-.94-1.11-1.23-1.81s-.44-1.47-.44-2.32.15-1.62.45-2.32c.3-.7.72-1.3,1.24-1.81s1.15-.9,1.87-1.18,1.51-.42,2.35-.42c.38,0,.76.03,1.12.1.37.06.72.16,1.05.29h3.72c.41,0,.7.09.87.27.17.18.25.43.25.75,0,.22-.04.42-.12.6s-.14.29-.19.36h-2.15c.51.46.86,1.01,1.06,1.66.2.64.3,1.25.3,1.83l.03-.02ZM305.91,332.44c0-1.15-.31-2.07-.94-2.76s-1.46-1.04-2.5-1.04-1.89.35-2.52,1.05c-.63.7-.94,1.62-.94,2.75s.31,2.07.94,2.77c.63.7,1.47,1.05,2.52,1.05s1.87-.35,2.5-1.05c.63-.7.94-1.62.94-2.77h0Z"/>
    <path class="st0" d="M316.15,328.79c-.4,0-.75.03-1.05.08-.3.06-.56.12-.78.19-.21.07-.39.14-.51.21-.13.07-.21.12-.26.16v9.65h-2.46v-10.91s.19-.15.44-.3.58-.31,1-.48.92-.32,1.49-.45c.57-.14,1.22-.2,1.93-.2.64,0,1.16.04,1.56.12.41.08.73.18.97.31.45.22.67.55.67.98,0,.3-.06.56-.19.76s-.24.35-.33.43c-.16-.11-.47-.23-.93-.36-.46-.13-.98-.19-1.55-.19h0Z"/>
    <path class="st0" d="M330.72,331.3c0,.92-.26,1.65-.76,2.17-.51.53-1.38.79-2.6.79h-5.59c.14,1,.56,1.78,1.25,2.32s1.63.81,2.81.81c.91,0,1.65-.09,2.23-.27.58-.18.98-.34,1.18-.47l.76,1.79c-.08.05-.24.13-.49.25s-.56.23-.96.35c-.39.11-.84.21-1.36.3s-1.08.13-1.68.13c-.89,0-1.72-.13-2.5-.38-.77-.25-1.44-.64-2.02-1.15-.57-.51-1.02-1.15-1.35-1.93-.33-.78-.49-1.69-.49-2.72,0-.97.16-1.86.47-2.66.31-.8.74-1.5,1.3-2.08s1.22-1.03,1.98-1.35,1.61-.48,2.53-.48c.86,0,1.62.12,2.28.35s1.21.55,1.65.96.77.89,1,1.44c.23.56.35,1.17.35,1.84h0ZM328.36,331.06c0-.3-.05-.6-.15-.91-.1-.3-.27-.57-.51-.81s-.55-.43-.92-.58c-.37-.15-.82-.23-1.35-.23-.61,0-1.14.12-1.6.37s-.85.56-1.16.94-.55.81-.7,1.28c-.16.47-.25.94-.26,1.4h5.04c.57,0,.99-.1,1.24-.31s.38-.59.38-1.15h0Z"/>
    <path class="st0" d="M335.38,339.8c0,.8-.12,1.47-.35,2.02s-.54.99-.92,1.33c-.38.33-.83.58-1.34.73s-1.04.23-1.6.23c-.33,0-.65-.02-.94-.07-.29-.05-.56-.1-.81-.17-.25-.06-.45-.13-.62-.2s-.28-.12-.35-.15l.67-1.65c.08.05.28.12.6.23s.7.16,1.15.16c.27,0,.53-.04.78-.11.25-.07.46-.19.64-.36.18-.17.33-.39.44-.68.11-.29.17-.64.17-1.05v-11.82c0-.4.12-.68.35-.86.23-.17.55-.26.97-.26.27,0,.51.03.73.08.21.06.36.1.44.13v12.49-.02ZM335.66,322.99c0,.41-.15.77-.45,1.06-.3.29-.67.44-1.1.44s-.77-.15-1.07-.44c-.3-.29-.45-.65-.45-1.06s.15-.77.45-1.06c.3-.29.66-.44,1.07-.44s.8.15,1.1.44c.3.29.45.65.45,1.06Z"/>
    <path class="st0" d="M342.54,328.62c-.46,0-.87.04-1.23.12-.36.08-.67.17-.93.27-.26.1-.48.21-.66.33-.17.12-.32.22-.43.3-.18-.11-.33-.27-.45-.48s-.19-.45-.19-.72.08-.5.23-.68c.15-.18.35-.34.61-.47.27-.13.65-.25,1.12-.37.48-.12,1.07-.18,1.79-.18.96,0,1.81.09,2.58.26.76.18,1.41.47,1.95.87.53.41.94.94,1.23,1.59s.43,1.45.43,2.39v7.14c-.29.06-.89.15-1.8.25-.92.1-2.11.15-3.57.15-1.19,0-2.16-.11-2.9-.32-.74-.22-1.32-.5-1.73-.86s-.69-.77-.84-1.23c-.14-.46-.22-.94-.22-1.43,0-.62.1-1.18.29-1.67.19-.49.5-.91.93-1.24s1-.59,1.71-.78c.71-.18,1.58-.27,2.61-.27.72,0,1.36.02,1.95.05.58.03.97.06,1.16.1v-.12c0-.25-.02-.49-.07-.72-.13-.75-.47-1.32-1.04-1.71s-1.4-.59-2.52-.59v.02ZM346.14,333.47s-.17-.03-.36-.05c-.19-.02-.42-.04-.69-.06s-.56-.04-.87-.06-.61-.02-.9-.02c-1.19,0-2.05.18-2.57.55-.52.37-.78.93-.78,1.69,0,.32.05.61.14.88.1.27.27.5.53.69.25.19.6.34,1.03.44s.97.15,1.62.15c.81,0,1.45-.03,1.91-.1.46-.06.77-.12.93-.17v-3.96.02Z"/>
    <path class="st0" d="M358.65,331.85v4.99h8.24v2.24h-10.82v-14.97c0-.46.12-.82.37-1.06s.62-.37,1.13-.37h8.24c.8,0,1.19.37,1.19,1.12,0,.27-.04.51-.12.72s-.14.35-.19.43h-8.05v4.63h6.83c.8,0,1.19.37,1.19,1.12,0,.27-.04.51-.12.72s-.14.35-.19.43h-7.71.01Z"/>
    <path class="st0" d="M380.05,327.62c-.1.35-.26.82-.49,1.4-.23.58-.5,1.23-.8,1.95s-.63,1.47-.99,2.26-.72,1.55-1.07,2.29c-.36.74-.7,1.43-1.03,2.08s-.61,1.18-.85,1.61h-2.55c-.29-.51-.59-1.07-.9-1.68s-.62-1.23-.93-1.86c-.31-.63-.61-1.25-.89-1.87-.29-.62-.55-1.2-.8-1.73s-.46-1.01-.64-1.42c-.18-.41-.32-.73-.42-.96s-.19-.46-.29-.72c-.1-.25-.14-.49-.14-.72,0-.29.1-.55.29-.79.19-.24.52-.36.98-.36.32,0,.56.03.74.1.18.06.27.1.29.12.27.75.58,1.57.94,2.46.36.89.72,1.77,1.1,2.64s.74,1.69,1.09,2.48.66,1.45.93,1.99c.19-.37.44-.89.75-1.56.31-.68.64-1.42.98-2.23s.69-1.65,1.04-2.51c.35-.86.66-1.65.93-2.36.13-.35.29-.62.48-.82s.51-.3.95-.3c.38,0,.69.07.92.22.23.14.36.25.39.31v-.02Z"/>
    <path class="st0" d="M385.04,328.62c-.46,0-.87.04-1.23.12-.36.08-.67.17-.93.27-.26.1-.48.21-.66.33-.17.12-.32.22-.43.3-.18-.11-.33-.27-.45-.48s-.19-.45-.19-.72.08-.5.23-.68c.15-.18.35-.34.61-.47.27-.13.65-.25,1.12-.37.48-.12,1.07-.18,1.79-.18.96,0,1.81.09,2.58.26.76.18,1.41.47,1.95.87.53.41.94.94,1.23,1.59s.43,1.45.43,2.39v7.14c-.29.06-.89.15-1.8.25-.92.1-2.11.15-3.57.15-1.19,0-2.16-.11-2.9-.32-.74-.22-1.32-.5-1.73-.86s-.69-.77-.84-1.23c-.14-.46-.22-.94-.22-1.43,0-.62.1-1.18.29-1.67.19-.49.5-.91.93-1.24s1-.59,1.71-.78c.71-.18,1.58-.27,2.61-.27.72,0,1.36.02,1.95.05.58.03.97.06,1.16.1v-.12c0-.25-.02-.49-.07-.72-.13-.75-.47-1.32-1.04-1.71s-1.4-.59-2.52-.59v.02ZM388.64,333.47s-.17-.03-.36-.05c-.19-.02-.42-.04-.69-.06s-.56-.04-.87-.06-.61-.02-.9-.02c-1.19,0-2.05.18-2.57.55-.52.37-.78.93-.78,1.69,0,.32.05.61.14.88.1.27.27.5.53.69.25.19.6.34,1.03.44s.97.15,1.62.15c.81,0,1.45-.03,1.91-.1.46-.06.77-.12.93-.17v-3.96.02Z"/>
    <path class="st0" d="M402.54,339.08v-6.73c0-1.16-.28-2.05-.84-2.65s-1.43-.91-2.63-.91c-.81,0-1.46.08-1.93.23s-.78.26-.91.32v9.74h-2.46v-11.32c.06-.03.24-.1.53-.22.29-.11.67-.23,1.15-.36s1.03-.24,1.67-.33c.64-.1,1.34-.14,2.1-.14.88,0,1.67.12,2.39.35s1.33.56,1.83.99.89.95,1.16,1.55c.27.6.41,1.29.41,2.05v7.43h-2.47Z"/>
    <path class="st0" d="M418.87,332.56c0,.91-.18,1.71-.53,2.4s-.83,1.29-1.43,1.8c.43.24.78.5,1.04.78s.47.56.61.85c.14.29.24.56.29.82.05.26.07.49.07.68,0,.65-.14,1.24-.42,1.76-.28.52-.67.96-1.18,1.31-.51.36-1.12.64-1.83.84-.71.2-1.48.3-2.33.3-.91,0-1.71-.07-2.4-.2-.69-.14-1.27-.29-1.74-.47s-.84-.34-1.1-.5-.42-.26-.47-.31l1.03-1.84c.08.06.23.17.47.31.23.14.53.29.91.44.37.15.82.28,1.32.39.51.11,1.08.17,1.72.17.48,0,.92-.04,1.34-.13.41-.09.77-.22,1.07-.41.3-.18.54-.42.72-.72.18-.29.26-.65.26-1.06,0-.3-.1-.64-.3-1s-.55-.67-1.06-.91c-.26.1-.57.17-.96.24-.38.06-.72.1-1.03.1-.86,0-1.65-.14-2.38-.43s-1.35-.68-1.87-1.19c-.53-.51-.94-1.11-1.23-1.81s-.44-1.47-.44-2.32.15-1.62.45-2.32c.3-.7.72-1.3,1.24-1.81s1.15-.9,1.87-1.18,1.51-.42,2.35-.42c.38,0,.76.03,1.12.1.37.06.72.16,1.05.29h3.72c.41,0,.7.09.87.27.17.18.25.43.25.75,0,.22-.04.42-.12.6s-.14.29-.19.36h-2.15c.51.46.86,1.01,1.06,1.66.2.64.3,1.25.3,1.83l.03-.02ZM416.39,332.44c0-1.15-.31-2.07-.94-2.76s-1.46-1.04-2.5-1.04-1.89.35-2.52,1.05c-.63.7-.94,1.62-.94,2.75s.31,2.07.94,2.77c.63.7,1.47,1.05,2.52,1.05s1.87-.35,2.5-1.05c.63-.7.94-1.62.94-2.77h0Z"/>
    <path class="st0" d="M432.5,331.3c0,.92-.26,1.65-.76,2.17-.51.53-1.38.79-2.6.79h-5.59c.14,1,.56,1.78,1.25,2.32s1.63.81,2.81.81c.91,0,1.65-.09,2.23-.27.58-.18.98-.34,1.18-.47l.76,1.79c-.08.05-.24.13-.49.25s-.56.23-.96.35c-.39.11-.84.21-1.36.3s-1.08.13-1.68.13c-.89,0-1.72-.13-2.5-.38-.77-.25-1.44-.64-2.02-1.15-.57-.51-1.02-1.15-1.35-1.93-.33-.78-.49-1.69-.49-2.72,0-.97.16-1.86.47-2.66.31-.8.74-1.5,1.3-2.08s1.22-1.03,1.98-1.35,1.61-.48,2.53-.48c.86,0,1.62.12,2.28.35s1.21.55,1.65.96.77.89,1,1.44c.23.56.35,1.17.35,1.84h0ZM430.14,331.06c0-.3-.05-.6-.15-.91-.1-.3-.27-.57-.51-.81s-.55-.43-.92-.58c-.37-.15-.82-.23-1.35-.23-.61,0-1.14.12-1.6.37s-.85.56-1.16.94-.55.81-.7,1.28c-.16.47-.25.94-.26,1.4h5.04c.57,0,.99-.1,1.24-.31s.38-.59.38-1.15h0ZM426.49,325.57l-.84-1.19,2.46-1.98c.22-.17.41-.3.57-.37s.34-.11.55-.11c.25,0,.47.06.64.17.17.11.32.24.43.39.11.15.19.3.24.45.05.15.07.26.07.32l-4.13,2.32h.01Z"/>
    <path class="st0" d="M434.68,322.61c0-.38.12-.66.35-.85.23-.18.55-.27.97-.27.27,0,.51.03.73.1.21.06.36.11.44.14v17.36h-2.48v-16.47h-.01Z"/>
    <path class="st0" d="M442.99,322.99c0,.41-.15.77-.45,1.06-.3.29-.67.44-1.1.44s-.77-.15-1.07-.44c-.3-.29-.45-.65-.45-1.06s.15-.77.45-1.06c.3-.29.66-.44,1.07-.44s.8.15,1.1.44c.3.29.45.65.45,1.06ZM440.22,328.22c0-.4.12-.68.35-.86.23-.17.55-.26.97-.26.27,0,.51.03.73.08.21.06.36.1.44.13v11.77h-2.48v-10.86h-.01Z"/>
    <path class="st0" d="M451.49,328.79c-.56,0-1.07.09-1.55.27-.48.18-.9.45-1.25.81s-.64.8-.85,1.34-.31,1.16-.31,1.87.1,1.39.31,1.92.49.98.86,1.34.79.62,1.27.79.99.25,1.55.25c.4,0,.76-.04,1.1-.12.33-.08.63-.17.88-.26.25-.1.47-.19.63-.29.17-.1.28-.17.35-.22l1.05,1.7c-.14.1-.34.21-.6.36-.26.14-.56.28-.92.41s-.77.23-1.23.32c-.46.09-.98.13-1.55.13-.88,0-1.69-.14-2.46-.42-.76-.28-1.42-.68-1.98-1.22-.56-.53-1-1.19-1.33-1.97s-.49-1.67-.49-2.67.16-1.9.49-2.69.78-1.46,1.35-2.01c.57-.55,1.25-.97,2.02-1.25.77-.29,1.6-.43,2.5-.43.54,0,1.01.03,1.42.1.41.06.76.14,1.05.24.29.1.53.19.7.29s.31.18.41.24c.16.13.29.28.41.45.11.17.17.38.17.62,0,.19-.06.42-.19.68-.13.26-.32.49-.57.68-.1-.1-.23-.21-.41-.36-.18-.14-.4-.28-.67-.42-.27-.14-.58-.25-.94-.35-.36-.1-.76-.14-1.21-.14h0Z"/>
    <path class="st0" d="M461.35,328.62c-.46,0-.87.04-1.23.12-.36.08-.67.17-.93.27-.26.1-.48.21-.66.33-.17.12-.32.22-.43.3-.18-.11-.33-.27-.45-.48s-.19-.45-.19-.72.08-.5.23-.68c.15-.18.35-.34.61-.47.27-.13.65-.25,1.12-.37.48-.12,1.07-.18,1.79-.18.96,0,1.81.09,2.58.26.76.18,1.41.47,1.95.87.53.41.94.94,1.23,1.59s.43,1.45.43,2.39v7.14c-.29.06-.89.15-1.8.25-.92.1-2.11.15-3.57.15-1.19,0-2.16-.11-2.9-.32-.74-.22-1.32-.5-1.73-.86s-.69-.77-.84-1.23c-.14-.46-.22-.94-.22-1.43,0-.62.1-1.18.29-1.67.19-.49.5-.91.93-1.24s1-.59,1.71-.78c.71-.18,1.58-.27,2.61-.27.72,0,1.36.02,1.95.05.58.03.97.06,1.16.1v-.12c0-.25-.02-.49-.07-.72-.13-.75-.47-1.32-1.04-1.71s-1.4-.59-2.52-.59v.02ZM464.95,333.47s-.17-.03-.36-.05c-.19-.02-.42-.04-.69-.06s-.56-.04-.87-.06-.61-.02-.9-.02c-1.19,0-2.05.18-2.57.55-.52.37-.78.93-.78,1.69,0,.32.05.61.14.88.1.27.27.5.53.69.25.19.6.34,1.03.44s.97.15,1.62.15c.81,0,1.45-.03,1.91-.1.46-.06.77-.12.93-.17v-3.96.02Z"/>
    <path class="st0" d="M474.88,324.11c0-.46.12-.82.37-1.06s.62-.37,1.13-.37h4.58c.94,0,1.75.12,2.42.35s1.23.54,1.66.92.75.83.96,1.35.31,1.06.31,1.64-.09,1.04-.26,1.46c-.18.41-.38.77-.62,1.06s-.49.53-.74.72c-.25.18-.46.31-.62.37.41.11.8.28,1.17.51.37.23.69.52.97.86s.5.74.66,1.18c.16.45.24.93.24,1.46,0,.48-.08.98-.25,1.52-.17.53-.46,1.02-.87,1.47s-.98.82-1.68,1.11c-.71.29-1.61.44-2.71.44h-6.71v-14.99ZM483.72,327.12c0-.72-.24-1.29-.73-1.71-.49-.42-1.25-.63-2.28-.63h-3.3v4.85h3.39c1.02,0,1.76-.24,2.22-.73.46-.49.69-1.08.69-1.78h0ZM484.46,334.38c0-.35-.06-.69-.18-1.01-.12-.33-.3-.61-.55-.85-.25-.24-.56-.43-.94-.57s-.84-.21-1.36-.21h-4.01v5.25h3.99c1.05,0,1.82-.24,2.32-.73.49-.49.74-1.11.74-1.87h-.01Z"/>
    <path class="st0" d="M493.94,328.62c-.46,0-.87.04-1.23.12-.36.08-.67.17-.93.27-.26.1-.48.21-.66.33-.17.12-.32.22-.43.3-.18-.11-.33-.27-.45-.48s-.19-.45-.19-.72.08-.5.23-.68c.15-.18.35-.34.61-.47.27-.13.65-.25,1.12-.37.48-.12,1.07-.18,1.79-.18.96,0,1.81.09,2.58.26.76.18,1.41.47,1.95.87.53.41.94.94,1.23,1.59s.43,1.45.43,2.39v7.14c-.29.06-.89.15-1.8.25-.92.1-2.11.15-3.57.15-1.19,0-2.16-.11-2.9-.32-.74-.22-1.32-.5-1.73-.86s-.69-.77-.84-1.23c-.14-.46-.22-.94-.22-1.43,0-.62.1-1.18.29-1.67.19-.49.5-.91.93-1.24s1-.59,1.71-.78c.71-.18,1.58-.27,2.61-.27.72,0,1.36.02,1.95.05.58.03.97.06,1.16.1v-.12c0-.25-.02-.49-.07-.72-.13-.75-.47-1.32-1.04-1.71s-1.4-.59-2.52-.59v.02ZM497.54,333.47s-.17-.03-.36-.05c-.19-.02-.42-.04-.69-.06s-.56-.04-.87-.06-.61-.02-.9-.02c-1.19,0-2.05.18-2.57.55-.52.37-.78.93-.78,1.69,0,.32.05.61.14.88.1.27.27.5.53.69.25.19.6.34,1.03.44s.97.15,1.62.15c.81,0,1.45-.03,1.91-.1.46-.06.77-.12.93-.17v-3.96.02Z"/>
    <path class="st0" d="M505.85,329.15v6.16c0,.8.18,1.34.53,1.64.35.29.83.44,1.43.44.25,0,.49-.03.72-.08.22-.06.42-.12.6-.2.17-.08.32-.15.43-.23.11-.07.19-.12.24-.15l.96,1.53c-.06.05-.18.14-.36.27-.18.14-.41.27-.69.39-.29.13-.63.24-1.04.35-.41.1-.86.15-1.37.15-.68,0-1.27-.1-1.77-.29s-.9-.46-1.22-.8-.55-.74-.7-1.21c-.15-.46-.23-.96-.23-1.5v-6.47h-1.1c-.76,0-1.15-.34-1.15-1.03,0-.25.04-.47.12-.66.08-.18.14-.31.17-.37h1.96v-2.6c0-.38.12-.66.35-.85.23-.18.55-.27.97-.27.27,0,.51.03.73.1.21.06.36.11.44.14v3.49h3.06c.75,0,1.12.34,1.12,1.03,0,.25-.04.47-.11.66-.07.18-.12.31-.16.37h-3.93Z"/>
    <path class="st0" d="M514.3,322.99c0,.41-.15.77-.45,1.06s-.67.44-1.1.44-.77-.15-1.07-.44c-.3-.29-.45-.65-.45-1.06s.15-.77.45-1.06c.3-.29.66-.44,1.07-.44s.8.15,1.1.44.45.65.45,1.06ZM511.53,328.22c0-.4.12-.68.35-.86.23-.17.55-.26.97-.26.27,0,.51.03.73.08.21.06.36.1.44.13v11.77h-2.48v-10.86h0Z"/>
    <path class="st0" d="M521.56,328.62c-1.03,0-1.77.14-2.2.43-.43.29-.65.69-.65,1.22,0,.43.18.76.55.98s.92.39,1.65.5l2.05.29c1.53.22,2.61.62,3.26,1.21.64.58.97,1.34.97,2.28,0,1.15-.45,2.08-1.34,2.81-.89.72-2.25,1.09-4.08,1.09-.84,0-1.6-.07-2.28-.2s-1.25-.29-1.73-.45c-.48-.17-.86-.33-1.13-.5-.28-.17-.45-.27-.51-.32l.98-1.72c.06.05.22.14.47.27.25.14.57.28.97.43.4.15.87.28,1.41.39.54.11,1.15.17,1.81.17.91,0,1.61-.12,2.1-.37s.74-.66.74-1.23c0-.46-.18-.82-.54-1.06s-1.01-.43-1.95-.56l-1.65-.24c-1.34-.19-2.37-.56-3.1-1.11s-1.1-1.36-1.1-2.42c0-.49.09-.96.26-1.41.18-.45.47-.84.87-1.18s.94-.62,1.6-.82c.66-.21,1.48-.31,2.45-.31,1.1,0,1.97.09,2.63.26.65.18,1.14.34,1.46.5.65.33.98.74.98,1.22,0,.32-.09.58-.26.78-.18.2-.35.35-.53.47-.03-.03-.14-.12-.32-.27s-.44-.31-.78-.47-.76-.3-1.27-.43-1.11-.19-1.79-.19v-.04Z"/>
    <path class="st0" d="M532.14,329.15v6.16c0,.8.18,1.34.53,1.64.35.29.83.44,1.43.44.25,0,.49-.03.72-.08.22-.06.42-.12.6-.2.17-.08.32-.15.43-.23.11-.07.19-.12.24-.15l.96,1.53c-.06.05-.18.14-.36.27-.18.14-.41.27-.69.39-.29.13-.63.24-1.04.35-.41.1-.86.15-1.37.15-.68,0-1.27-.1-1.77-.29s-.9-.46-1.22-.8c-.32-.34-.55-.74-.7-1.21-.15-.46-.23-.96-.23-1.5v-6.47h-1.1c-.76,0-1.15-.34-1.15-1.03,0-.25.04-.47.12-.66.08-.18.14-.31.17-.37h1.96v-2.6c0-.38.12-.66.35-.85.23-.18.55-.27.97-.27.27,0,.51.03.73.1.21.06.36.11.44.14v3.49h3.06c.75,0,1.12.34,1.12,1.03,0,.25-.04.47-.11.66-.07.18-.12.31-.16.37h-3.93Z"/>
    <path class="st0" d="M541.93,328.62c-.46,0-.87.04-1.23.12s-.67.17-.93.27c-.26.1-.48.21-.66.33-.17.12-.32.22-.43.3-.18-.11-.33-.27-.45-.48s-.19-.45-.19-.72.08-.5.23-.68c.15-.18.35-.34.61-.47.27-.13.65-.25,1.12-.37.48-.12,1.07-.18,1.79-.18.96,0,1.81.09,2.58.26.76.18,1.41.47,1.95.87.53.41.94.94,1.23,1.59s.43,1.45.43,2.39v7.14c-.29.06-.89.15-1.8.25-.92.1-2.11.15-3.57.15-1.19,0-2.16-.11-2.9-.32-.74-.22-1.32-.5-1.73-.86s-.69-.77-.84-1.23c-.14-.46-.22-.94-.22-1.43,0-.62.1-1.18.29-1.67.19-.49.5-.91.93-1.24s1-.59,1.71-.78c.71-.18,1.58-.27,2.61-.27.72,0,1.36.02,1.95.05.58.03.97.06,1.16.1v-.12c0-.25-.02-.49-.07-.72-.13-.75-.47-1.32-1.04-1.71s-1.4-.59-2.52-.59v.02ZM545.53,333.47s-.17-.03-.36-.05-.42-.04-.69-.06-.56-.04-.87-.06-.61-.02-.9-.02c-1.19,0-2.05.18-2.57.55s-.78.93-.78,1.69c0,.32.05.61.14.88.1.27.27.5.53.69.25.19.6.34,1.03.44.43.1.97.15,1.62.15.81,0,1.45-.03,1.91-.1.46-.06.77-.12.93-.17v-3.96.02Z"/>
    <path class="st0" d="M563.99,339.08v-6.73c0-1.16-.28-2.05-.84-2.65s-1.43-.91-2.63-.91c-.81,0-1.46.08-1.93.23s-.78.26-.91.32v9.74h-2.46v-11.32c.06-.03.24-.1.53-.22.29-.11.67-.23,1.15-.36s1.03-.24,1.67-.33c.64-.1,1.34-.14,2.1-.14.88,0,1.67.12,2.39.35s1.33.56,1.83.99.89.95,1.16,1.55c.27.6.41,1.29.41,2.05v7.43h-2.47Z"/>
    <path class="st0" d="M581.25,333.09c0,.91-.16,1.75-.47,2.53s-.74,1.45-1.3,2.02c-.56.57-1.23,1.01-2.01,1.34s-1.64.49-2.58.49-1.8-.16-2.59-.49c-.79-.33-1.46-.77-2.02-1.34-.56-.56-.99-1.24-1.3-2.02s-.47-1.62-.47-2.53.16-1.75.47-2.53.74-1.45,1.3-2.02c.56-.56,1.23-1.01,2.02-1.34.79-.33,1.65-.49,2.59-.49s1.8.16,2.58.49,1.45.77,2.01,1.34c.56.56.99,1.24,1.3,2.02s.47,1.62.47,2.53ZM578.7,333.09c0-.64-.09-1.22-.26-1.75s-.43-.99-.75-1.39-.72-.69-1.19-.91c-.47-.21-1-.32-1.59-.32s-1.14.11-1.61.32c-.47.22-.87.52-1.19.91s-.58.85-.75,1.39c-.18.53-.26,1.12-.26,1.75s.09,1.22.26,1.75.43,1,.75,1.39c.33.39.72.69,1.19.91.47.21,1.01.32,1.61.32s1.12-.11,1.59-.32c.47-.22.87-.52,1.19-.91.33-.39.58-.85.75-1.39.18-.53.26-1.12.26-1.75Z"/>
    <path class="st0" d="M586.36,339.08c.49-1.34,1.03-2.72,1.6-4.15.57-1.43,1.13-2.82,1.68-4.15.55-1.34,1.07-2.58,1.56-3.72s.92-2.09,1.27-2.84c.32-.7.65-1.18.99-1.44.34-.26.78-.39,1.3-.39.49,0,.87.08,1.12.24s.45.3.57.43c.29.49.63,1.17,1.03,2.04s.82,1.82,1.27,2.87.9,2.13,1.35,3.26c.45,1.13.88,2.21,1.28,3.24s.75,1.95,1.06,2.77.55,1.44.7,1.87h-2.77c-.08-.17-.18-.43-.3-.75s-.25-.68-.39-1.07-.29-.8-.45-1.22c-.16-.42-.31-.82-.45-1.21h-8.24c-.37.91-.68,1.73-.96,2.48-.27.75-.49,1.34-.64,1.77h-2.58v-.03ZM594.69,324.8c-.18.37-.39.83-.63,1.4-.25.57-.52,1.19-.81,1.89-.29.69-.6,1.43-.92,2.21s-.63,1.56-.93,2.34h6.52c-.29-.76-.59-1.55-.92-2.35-.33-.8-.64-1.57-.93-2.29s-.56-1.37-.8-1.93-.43-.98-.57-1.25v-.02Z"/>
    <path class="st0" d="M604.48,322.61c0-.38.12-.66.35-.85.23-.18.55-.27.97-.27.27,0,.51.03.73.1.21.06.36.11.44.14v17.36h-2.48v-16.47h0Z"/>
    <path class="st0" d="M613.03,329.15v6.16c0,.8.18,1.34.53,1.64.35.29.83.44,1.43.44.25,0,.49-.03.72-.08.22-.06.42-.12.6-.2.17-.08.32-.15.43-.23.11-.07.19-.12.24-.15l.96,1.53c-.06.05-.18.14-.36.27-.18.14-.41.27-.69.39-.29.13-.63.24-1.04.35-.41.1-.86.15-1.37.15-.68,0-1.27-.1-1.77-.29s-.9-.46-1.22-.8c-.32-.34-.55-.74-.7-1.21-.15-.46-.23-.96-.23-1.5v-6.47h-1.1c-.76,0-1.15-.34-1.15-1.03,0-.25.04-.47.12-.66.08-.18.14-.31.17-.37h1.96v-2.6c0-.38.12-.66.35-.85.23-.18.55-.27.97-.27.27,0,.51.03.73.1.21.06.36.11.44.14v3.49h3.06c.75,0,1.12.34,1.12,1.03,0,.25-.04.47-.11.66-.07.18-.12.31-.16.37h-3.93Z"/>
    <path class="st0" d="M630.65,333.09c0,.91-.16,1.75-.47,2.53s-.74,1.45-1.3,2.02c-.56.57-1.23,1.01-2.01,1.34s-1.64.49-2.58.49-1.8-.16-2.59-.49c-.79-.33-1.46-.77-2.02-1.34-.56-.56-.99-1.24-1.3-2.02s-.47-1.62-.47-2.53.16-1.75.47-2.53.74-1.45,1.3-2.02c.56-.56,1.23-1.01,2.02-1.34.79-.33,1.65-.49,2.59-.49s1.8.16,2.58.49,1.45.77,2.01,1.34c.56.56.99,1.24,1.3,2.02s.47,1.62.47,2.53ZM628.1,333.09c0-.64-.09-1.22-.26-1.75s-.43-.99-.75-1.39-.72-.69-1.19-.91c-.47-.21-1-.32-1.59-.32s-1.14.11-1.61.32c-.47.22-.87.52-1.19.91s-.58.85-.75,1.39c-.18.53-.26,1.12-.26,1.75s.09,1.22.26,1.75.43,1,.75,1.39c.33.39.72.69,1.19.91.47.21,1.01.32,1.61.32s1.12-.11,1.59-.32c.47-.22.87-.52,1.19-.91.33-.39.58-.85.75-1.39.18-.53.26-1.12.26-1.75Z"/>
    <path class="st0" d="M648.7,339.08c-.06.02-.22.04-.47.07s-.57.07-.96.11c-.39.04-.85.08-1.37.11s-1.1.05-1.72.05c-1.27,0-2.38-.15-3.32-.47-.94-.31-1.72-.75-2.34-1.32-.62-.57-1.08-1.27-1.38-2.08s-.45-1.72-.45-2.72.14-1.81.43-2.57.68-1.39,1.17-1.91,1.08-.91,1.76-1.18,1.41-.41,2.21-.41c.65,0,1.21.08,1.68.24s.86.35,1.18.56c.32.22.56.43.74.63.17.21.29.36.36.45v-6.04c0-.75.44-1.12,1.31-1.12.27,0,.51.03.73.1.22.06.36.11.44.14v17.36h0ZM639.27,333.02c0,.65.09,1.25.26,1.8s.45,1.02.82,1.42c.37.4.85.7,1.43.92s1.27.32,2.07.32c.7,0,1.24-.03,1.61-.1.37-.06.62-.12.75-.17v-4.46c0-.56-.07-1.07-.22-1.55-.14-.48-.36-.9-.64-1.25s-.64-.64-1.06-.84c-.42-.2-.92-.3-1.49-.3-1.16,0-2.04.37-2.64,1.12-.6.75-.9,1.78-.9,3.08h.01Z"/>
    <path class="st0" d="M655.7,328.62c-.46,0-.87.04-1.23.12s-.67.17-.93.27c-.26.1-.48.21-.66.33-.17.12-.32.22-.43.3-.18-.11-.33-.27-.45-.48s-.19-.45-.19-.72.08-.5.23-.68c.15-.18.35-.34.61-.47.27-.13.65-.25,1.12-.37.48-.12,1.07-.18,1.79-.18.96,0,1.81.09,2.58.26.76.18,1.41.47,1.95.87.53.41.94.94,1.23,1.59s.43,1.45.43,2.39v7.14c-.29.06-.89.15-1.8.25-.92.1-2.11.15-3.57.15-1.19,0-2.16-.11-2.9-.32-.74-.22-1.32-.5-1.73-.86s-.69-.77-.84-1.23c-.14-.46-.22-.94-.22-1.43,0-.62.1-1.18.29-1.67.19-.49.5-.91.93-1.24s1-.59,1.71-.78c.71-.18,1.58-.27,2.61-.27.72,0,1.36.02,1.95.05.58.03.97.06,1.16.1v-.12c0-.25-.02-.49-.07-.72-.13-.75-.47-1.32-1.04-1.71s-1.4-.59-2.52-.59v.02ZM659.3,333.47s-.17-.03-.36-.05-.42-.04-.69-.06-.56-.04-.87-.06-.61-.02-.9-.02c-1.19,0-2.05.18-2.57.55s-.78.93-.78,1.69c0,.32.05.61.14.88.1.27.27.5.53.69.25.19.6.34,1.03.44.43.1.97.15,1.62.15.81,0,1.45-.03,1.91-.1.46-.06.77-.12.93-.17v-3.96.02Z"/>
    <path class="st0" d="M684.23,339.08c-.02-.25-.04-.72-.08-1.39-.04-.67-.08-1.45-.13-2.34-.05-.89-.1-1.83-.16-2.82-.06-.99-.11-1.92-.15-2.79-.05-.87-.09-1.65-.13-2.32s-.07-1.12-.08-1.36c-.16.33-.36.76-.6,1.27-.24.51-.5,1.06-.79,1.65s-.58,1.21-.88,1.85-.6,1.27-.9,1.87c-.29.6-.57,1.18-.84,1.72-.26.54-.49,1-.68,1.38h-1.89c-.29-.57-.63-1.28-1.04-2.12s-.83-1.72-1.27-2.64c-.44-.91-.87-1.81-1.29-2.7-.42-.88-.79-1.64-1.11-2.28-.02.37-.04.89-.08,1.58s-.08,1.45-.13,2.29-.1,1.72-.14,2.64c-.05.92-.1,1.79-.14,2.63-.05.84-.09,1.6-.12,2.28s-.06,1.22-.07,1.6h-2.53c.02-.41.04-1.01.08-1.8.04-.79.08-1.66.13-2.63.05-.96.1-1.97.16-3.03s.11-2.07.17-3.04.1-1.85.14-2.63c.04-.78.07-1.38.11-1.79.03-.48.2-.84.5-1.1.3-.25.68-.38,1.15-.38s.85.07,1.17.2c.32.14.56.29.72.47.13.27.31.64.54,1.11.23.47.49.99.76,1.58.28.58.57,1.19.88,1.83.31.64.61,1.26.91,1.87.29.61.58,1.19.85,1.72.27.53.5.99.69,1.37.25-.49.58-1.15.97-1.96.39-.81.8-1.65,1.22-2.52s.82-1.69,1.19-2.47.66-1.39.87-1.81c.19-.4.43-.73.72-.99s.72-.39,1.31-.39c.46,0,.82.06,1.09.18.26.12.43.21.51.27.03.45.07,1.09.12,1.92.05.84.1,1.77.15,2.81.06,1.04.12,2.12.18,3.25s.13,2.21.19,3.25c.06,1.03.12,1.97.16,2.81s.08,1.48.11,1.92h-2.51v-.02Z"/>
    <path class="st0" d="M701.59,333.09c0,.91-.16,1.75-.47,2.53s-.74,1.45-1.3,2.02c-.56.57-1.23,1.01-2.01,1.34s-1.64.49-2.58.49-1.8-.16-2.59-.49c-.79-.33-1.46-.77-2.02-1.34-.56-.56-.99-1.24-1.3-2.02s-.47-1.62-.47-2.53.16-1.75.47-2.53.74-1.45,1.3-2.02c.56-.56,1.23-1.01,2.02-1.34.79-.33,1.65-.49,2.59-.49s1.8.16,2.58.49,1.45.77,2.01,1.34c.56.56.99,1.24,1.3,2.02s.47,1.62.47,2.53ZM699.03,333.09c0-.64-.09-1.22-.26-1.75s-.43-.99-.75-1.39-.72-.69-1.19-.91c-.47-.21-1-.32-1.59-.32s-1.14.11-1.61.32c-.47.22-.87.52-1.19.91s-.58.85-.75,1.39c-.18.53-.26,1.12-.26,1.75s.09,1.22.26,1.75.43,1,.75,1.39c.33.39.72.69,1.19.91.47.21,1.01.32,1.61.32s1.12-.11,1.59-.32c.47-.22.87-.52,1.19-.91.33-.39.58-.85.75-1.39.18-.53.26-1.12.26-1.75Z"/>
    <path class="st0" d="M715.79,333.09c0,.91-.16,1.75-.47,2.53s-.74,1.45-1.3,2.02c-.56.57-1.23,1.01-2.01,1.34s-1.64.49-2.58.49-1.8-.16-2.59-.49c-.79-.33-1.46-.77-2.02-1.34-.56-.56-.99-1.24-1.3-2.02s-.47-1.62-.47-2.53.16-1.75.47-2.53.74-1.45,1.3-2.02c.56-.56,1.23-1.01,2.02-1.34.79-.33,1.65-.49,2.59-.49s1.8.16,2.58.49,1.45.77,2.01,1.34c.56.56.99,1.24,1.3,2.02s.47,1.62.47,2.53ZM713.24,333.09c0-.64-.09-1.22-.26-1.75s-.43-.99-.75-1.39-.72-.69-1.19-.91c-.47-.21-1-.32-1.59-.32s-1.14.11-1.61.32c-.47.22-.87.52-1.19.91s-.58.85-.75,1.39c-.18.53-.26,1.12-.26,1.75s.09,1.22.26,1.75.43,1,.75,1.39c.33.39.72.69,1.19.91.47.21,1.01.32,1.61.32s1.12-.11,1.59-.32c.47-.22.87-.52,1.19-.91.33-.39.58-.85.75-1.39.18-.53.26-1.12.26-1.75Z"/>
    <path class="st0" d="M723.79,328.79c-.56,0-1.07.09-1.55.27s-.9.45-1.25.81-.64.8-.85,1.34-.31,1.16-.31,1.87.1,1.39.31,1.92.49.98.86,1.34.79.62,1.27.79.99.25,1.55.25c.4,0,.76-.04,1.1-.12.33-.08.63-.17.88-.26.25-.1.47-.19.63-.29.17-.1.28-.17.35-.22l1.05,1.7c-.14.1-.34.21-.6.36-.26.14-.56.28-.92.41s-.77.23-1.23.32c-.46.09-.98.13-1.55.13-.88,0-1.69-.14-2.46-.42-.76-.28-1.42-.68-1.98-1.22-.56-.53-1-1.19-1.33-1.97s-.49-1.67-.49-2.67.16-1.9.49-2.69.78-1.46,1.35-2.01c.57-.55,1.25-.97,2.02-1.25.77-.29,1.6-.43,2.5-.43.54,0,1.01.03,1.42.1.41.06.76.14,1.05.24.29.1.53.19.7.29s.31.18.41.24c.16.13.29.28.41.45.11.17.17.38.17.62,0,.19-.06.42-.19.68-.13.26-.32.49-.57.68-.1-.1-.23-.21-.41-.36-.18-.14-.4-.28-.67-.42-.27-.14-.58-.25-.94-.35s-.76-.14-1.21-.14h0Z"/>
    <path class="st0" d="M733.65,328.62c-.46,0-.87.04-1.23.12s-.67.17-.93.27c-.26.1-.48.21-.66.33-.17.12-.32.22-.43.3-.18-.11-.33-.27-.45-.48s-.19-.45-.19-.72.08-.5.23-.68c.15-.18.35-.34.61-.47.27-.13.65-.25,1.12-.37.48-.12,1.07-.18,1.79-.18.96,0,1.81.09,2.58.26.76.18,1.41.47,1.95.87.53.41.94.94,1.23,1.59s.43,1.45.43,2.39v7.14c-.29.06-.89.15-1.8.25-.92.1-2.11.15-3.57.15-1.19,0-2.16-.11-2.9-.32-.74-.22-1.32-.5-1.73-.86s-.69-.77-.84-1.23c-.14-.46-.22-.94-.22-1.43,0-.62.1-1.18.29-1.67.19-.49.5-.91.93-1.24s1-.59,1.71-.78c.71-.18,1.58-.27,2.61-.27.72,0,1.36.02,1.95.05.58.03.97.06,1.16.1v-.12c0-.25-.02-.49-.07-.72-.13-.75-.47-1.32-1.04-1.71s-1.4-.59-2.52-.59v.02ZM737.26,333.47s-.17-.03-.36-.05-.42-.04-.69-.06-.56-.04-.87-.06-.61-.02-.9-.02c-1.19,0-2.05.18-2.57.55s-.78.93-.78,1.69c0,.32.05.61.14.88.1.27.27.5.53.69.25.19.6.34,1.03.44.43.1.97.15,1.62.15.81,0,1.45-.03,1.91-.1.46-.06.77-.12.93-.17v-3.96.02Z"/>
  </g>
</svg>